# xmcd CD database file
#
# Track frame offsets:
#	150
#	21037
#	40895
#	59600
#	78850
#	102725
#	125562
#	138125
#
# Disc length: 2223 seconds
#
# Revision: 0
# Processed by: cddbd v1.5.1PL0 Copyright (c) Steve Scherf et al.
# Submitted via: CDex 1.51
#
DISCID=6808ad08
DTITLE=EMIKO KAI - Emerald City
DYEAR=1986
DGENRE=Jazz
TTITLE0=01. EMERALD CITY
TTITLE1=02. SEA BREEZE
TTITLE2=03. MELODIES OF LOVE
TTITLE3=04. SUMMERTIME
TTITLE4=05. ROSE SEA
TTITLE5=06. LOVE'S PARTING
TTITLE6=07. IN YOUR OWN SWEET WAY
TTITLE7=08. AESTHETIC CHAOS
EXTD=YEAR: 1986
EXTT0=
EXTT1=
EXTT2=
EXTT3=
EXTT4=
EXTT5=
EXTT6=
EXTT7=
PLAYORDER=
